<?xml version="1.0" encoding="UTF-8"?>
<svg version="1.1" xmlns="http://www.w3.org/2000/svg" width="512" height="512">
<path d="M0 0 C0.99868909 -0.00297112 1.99737819 -0.00594224 3.02633059 -0.0090034 C6.35908455 -0.01764635 9.69180239 -0.01919493 13.02456665 -0.02069092 C15.42015662 -0.02532233 17.81574585 -0.03034742 20.21133423 -0.03573608 C26.71186048 -0.04883371 33.21237985 -0.05533771 39.71291685 -0.05974674 C43.78023756 -0.06251761 47.84755591 -0.06675656 51.91487503 -0.07125092 C63.19913521 -0.08343966 74.48339352 -0.09373856 85.76766014 -0.09712601 C86.48888342 -0.09734557 87.2101067 -0.09756514 87.95318524 -0.09779136 C88.67603937 -0.09800964 89.39889351 -0.09822791 90.14365232 -0.09845281 C91.60818887 -0.09889626 93.07272542 -0.09934282 94.53726196 -0.09979248 C95.2637076 -0.10001391 95.99015323 -0.10023534 96.73861237 -0.10046348 C108.48858398 -0.10440477 120.23849332 -0.12184006 131.98844092 -0.145152 C144.08217627 -0.16895013 156.17588049 -0.18133175 168.26963961 -0.18249393 C175.04751456 -0.18340615 181.82530843 -0.18904286 188.60316086 -0.20731354 C194.98736375 -0.22388814 201.37141365 -0.2259044 207.75563049 -0.21717453 C210.08628883 -0.21640908 212.41695571 -0.22068117 214.74759293 -0.23063278 C258.07962913 -0.40465983 296.27158717 14.14096113 327.37026978 44.66778564 C335.82133285 53.25263113 342.72223089 62.77794547 348.81997681 73.14044189 C349.16657349 73.72519287 349.51317017 74.30994385 349.87026978 74.91241455 C362.01010239 95.68527045 368.98307225 119.22610484 368.9604187 143.32046509 C368.96487538 144.81849873 368.96487538 144.81849873 368.9694221 146.34679568 C368.97806505 149.67954963 368.97961363 153.01226748 368.98110962 156.34503174 C368.98574103 158.7406217 368.99076612 161.13621093 368.99615479 163.53179932 C369.00925242 170.03232557 369.01575642 176.53284494 369.02016544 183.03338194 C369.02293631 187.10070264 369.02717527 191.168021 369.03166962 195.23534012 C369.04385836 206.5196003 369.05415726 217.80385861 369.05754471 229.08812523 C369.05776427 229.80934851 369.05798384 230.53057179 369.05821006 231.27365033 C369.05842834 231.99650446 369.05864662 232.7193586 369.05887151 233.46411741 C369.05931496 234.92865396 369.05976152 236.3931905 369.06021118 237.85772705 C369.06043261 238.58417268 369.06065404 239.31061832 369.06088218 240.05907746 C369.06482347 251.80904907 369.08225876 263.55895841 369.1055707 275.308906 C369.12936883 287.40264135 369.14175045 299.49634558 369.14291263 311.5901047 C369.14382485 318.36797965 369.14946156 325.14577352 369.16773224 331.92362595 C369.18430684 338.30782883 369.1863231 344.69187874 369.17759323 351.07609558 C369.17682778 353.40675392 369.18109987 355.7374208 369.19105148 358.06805801 C369.36507853 401.40009422 354.81945758 439.59205226 324.29263306 470.69073486 C315.70778757 479.14179794 306.18247323 486.04269597 295.81997681 492.14044189 C295.23522583 492.48703857 294.65047485 492.83363525 294.04800415 493.19073486 C273.27514825 505.33056748 249.73431386 512.30353734 225.63995361 512.28088379 C224.64126452 512.28385491 223.64257542 512.28682603 222.61362302 512.28988719 C219.28086907 512.29853014 215.94815122 512.30007872 212.61538696 512.30157471 C210.219797 512.30620611 207.82420777 512.31123121 205.42861938 512.31661987 C198.92809313 512.3297175 192.42757376 512.3362215 185.92703676 512.34063053 C181.85971606 512.3434014 177.7923977 512.34764035 173.72507858 512.3521347 C162.4408184 512.36432345 151.15656009 512.37462235 139.87229347 512.3780098 C138.79045855 512.37833915 138.79045855 512.37833915 137.68676838 512.37867515 C136.96391424 512.37889343 136.2410601 512.3791117 135.49630129 512.3793366 C134.03176474 512.37978005 132.5672282 512.38022661 131.10269165 512.38067627 C130.37624602 512.3808977 129.64980038 512.38111913 128.90134124 512.38134727 C117.15136963 512.38528855 105.40146029 512.40272385 93.6515127 512.42603579 C81.55777735 512.44983392 69.46407312 512.46221554 57.370314 512.46337771 C50.59243905 512.46428994 43.81464518 512.46992664 37.03679276 512.48819733 C30.65258987 512.50477193 24.26853996 512.50678819 17.88432312 512.49805832 C15.55366478 512.49729287 13.2229979 512.50156496 10.89236069 512.51151657 C-32.43967552 512.68554362 -70.63163355 498.13992266 -101.73031616 467.61309814 C-110.18137924 459.02825266 -117.08227727 449.50293832 -123.18002319 439.14044189 C-123.52661987 438.55569092 -123.87321655 437.97093994 -124.23031616 437.36846924 C-139.15366328 411.83265263 -143.96888288 384.22270078 -143.82699585 354.93341064 C-143.83379502 352.5269607 -143.84271086 350.12051597 -143.85354614 347.71408081 C-143.87607264 341.2594098 -143.86761464 334.80514453 -143.85165071 328.35046768 C-143.84267249 324.30057544 -143.84447118 320.25073325 -143.84910202 316.20083618 C-143.84986819 315.52315191 -143.85063435 314.84546765 -143.85142373 314.14724749 C-143.85302277 312.7694531 -143.85464384 311.39165874 -143.85628669 310.0138644 C-143.87045789 297.17115175 -143.8542884 284.32861914 -143.82728486 271.48593605 C-143.80495393 260.5272569 -143.80883651 249.56884283 -143.83187866 238.61016846 C-143.85879081 225.80542442 -143.86908541 213.00083715 -143.85381734 200.19606876 C-143.85222502 198.82406174 -143.85065316 197.45205468 -143.84910202 196.08004761 C-143.84833064 195.40544076 -143.84755927 194.73083391 -143.84676451 194.03578442 C-143.84249339 189.33985864 -143.8498857 184.64406472 -143.86149979 179.94815063 C-143.87611257 173.59803788 -143.86562045 167.2484178 -143.8370285 160.89835739 C-143.83050645 158.58998806 -143.83215941 156.2815761 -143.84334183 153.97322464 C-144.02984188 111.50758545 -129.37532516 73.193066 -99.75082397 42.66778564 C-73.70742027 16.77431011 -36.88675524 -0.03468097 0 0 Z " fill="#2370B4" transform="translate(143.18002319335938,-0.14044189453125)"/>
<path d="M0 0 C0.7105957 0.01401855 1.42119141 0.02803711 2.15332031 0.04248047 C26.39008762 0.65122372 49.82834851 10.04732906 68 26 C68.76054687 26.66515625 69.52109375 27.3303125 70.3046875 28.015625 C85.63320766 42.33638778 95.08709944 63.67010679 96.12402344 84.49023438 C97.0727983 115.29613411 89.29939785 143.206806 69 167 C68.33613281 167.79664063 67.67226563 168.59328125 66.98828125 169.4140625 C52.18310489 186.58487745 30.99004162 201.03067832 7.98046875 203.74609375 C-10.74571016 204.94059976 -27.14775876 203.95074708 -45 198 C-46.56225258 205.74209782 -48.0706325 213.49405976 -49.5625 221.25 C-49.78357422 222.3946875 -50.00464844 223.539375 -50.23242188 224.71875 C-50.44576172 225.82734375 -50.65910156 226.9359375 -50.87890625 228.078125 C-51.0704126 229.07231445 -51.26191895 230.06650391 -51.45922852 231.09082031 C-51.7269104 232.53086426 -51.7269104 232.53086426 -52 234 C-52.18900879 234.90137695 -52.37801758 235.80275391 -52.57275391 236.73144531 C-53.16282133 241.24562969 -53.04316507 245.67347073 -52.95703125 250.21875 C-52.93465064 252.22264644 -52.91319441 254.22655338 -52.89257812 256.23046875 C-52.85545549 259.37089598 -52.81229696 262.51078389 -52.75317383 265.65087891 C-52.69861223 268.69441519 -52.66957678 271.73734643 -52.64453125 274.78125 C-52.60885796 276.18304504 -52.60885796 276.18304504 -52.57246399 277.61315918 C-52.54975934 283.28070575 -53.19706186 286.50638184 -57 291 C-62.72878805 296.63803497 -69.55923327 300.1411791 -77 303 C-77.66668701 303.26039063 -78.33337402 303.52078125 -79.02026367 303.7890625 C-84.52749311 305.80456091 -89.46072757 306.54812313 -95.3125 306.5 C-96.14136719 306.49355469 -96.97023437 306.48710937 -97.82421875 306.48046875 C-109.67698437 306.12968597 -119.24594134 300.84602016 -128 293 C-138.05744168 281.60435402 -140.40139663 265.68191331 -140.3125 251 C-140.30404053 249.50134399 -140.30404053 249.50134399 -140.29541016 247.97241211 C-139.74852285 213.92732367 -126.48703733 180.63336742 -116.0625 148.625 C-115.75943939 147.69385376 -115.45637878 146.76270752 -115.14413452 145.80334473 C-109.51109283 128.50079925 -109.51109283 128.50079925 -106.85610962 120.59069824 C-102.45474858 107.4728034 -98.58561571 94.77845375 -97 81 C-107.97854559 87.04940267 -113.71575496 100.52152801 -119.765625 111.08203125 C-120.27609375 111.96246094 -120.7865625 112.84289062 -121.3125 113.75 C-121.95638672 114.88695312 -121.95638672 114.88695312 -122.61328125 116.046875 C-124.67198545 118.94645838 -126.61305255 120.72008879 -130.1484375 121.43359375 C-135.58288093 121.44312786 -138.70595552 120.6499378 -143 117 C-146.96491595 109.0701681 -143.90516288 94.21941699 -142 86 C-141.74347656 84.89269531 -141.48695313 83.78539062 -141.22265625 82.64453125 C-134.18418002 55.42707597 -114.6781966 33.64699554 -91.05029297 19.19335938 C-62.87774118 2.79571314 -31.99727831 -0.75224997 0 0 Z " fill="#2470B4" transform="translate(280,103)"/>
<path d="M0 0 C0.7105957 0.01401855 1.42119141 0.02803711 2.15332031 0.04248047 C26.39008762 0.65122372 49.82834851 10.04732906 68 26 C68.76054687 26.66515625 69.52109375 27.3303125 70.3046875 28.015625 C85.63320766 42.33638778 95.08709944 63.67010679 96.12402344 84.49023438 C97.0727983 115.29613411 89.29939785 143.206806 69 167 C68.33613281 167.79664063 67.67226563 168.59328125 66.98828125 169.4140625 C52.18310489 186.58487745 30.99004162 201.03067832 7.98046875 203.74609375 C-10.74571016 204.94059976 -27.14775876 203.95074708 -45 198 C-46.56225258 205.74209782 -48.0706325 213.49405976 -49.5625 221.25 C-49.78357422 222.3946875 -50.00464844 223.539375 -50.23242188 224.71875 C-50.44576172 225.82734375 -50.65910156 226.9359375 -50.87890625 228.078125 C-51.0704126 229.07231445 -51.26191895 230.06650391 -51.45922852 231.09082031 C-51.7269104 232.53086426 -51.7269104 232.53086426 -52 234 C-52.18900879 234.90137695 -52.37801758 235.80275391 -52.57275391 236.73144531 C-53.16282133 241.24562969 -53.04316507 245.67347073 -52.95703125 250.21875 C-52.93465064 252.22264644 -52.91319441 254.22655338 -52.89257812 256.23046875 C-52.85545549 259.37089598 -52.81229696 262.51078389 -52.75317383 265.65087891 C-52.69861223 268.69441519 -52.66957678 271.73734643 -52.64453125 274.78125 C-52.60885796 276.18304504 -52.60885796 276.18304504 -52.57246399 277.61315918 C-52.54975934 283.28070575 -53.19706186 286.50638184 -57 291 C-62.72878805 296.63803497 -69.55923327 300.1411791 -77 303 C-77.66668701 303.26039063 -78.33337402 303.52078125 -79.02026367 303.7890625 C-84.52749311 305.80456091 -89.46072757 306.54812313 -95.3125 306.5 C-96.14136719 306.49355469 -96.97023437 306.48710937 -97.82421875 306.48046875 C-109.67698437 306.12968597 -119.24594134 300.84602016 -128 293 C-138.05744168 281.60435402 -140.40139663 265.68191331 -140.3125 251 C-140.30404053 249.50134399 -140.30404053 249.50134399 -140.29541016 247.97241211 C-139.74852285 213.92732367 -126.48703733 180.63336742 -116.0625 148.625 C-115.75943939 147.69385376 -115.45637878 146.76270752 -115.14413452 145.80334473 C-109.51109283 128.50079925 -109.51109283 128.50079925 -106.85610962 120.59069824 C-102.45474858 107.4728034 -98.58561571 94.77845375 -97 81 C-107.97854559 87.04940267 -113.71575496 100.52152801 -119.765625 111.08203125 C-120.27609375 111.96246094 -120.7865625 112.84289062 -121.3125 113.75 C-121.95638672 114.88695312 -121.95638672 114.88695312 -122.61328125 116.046875 C-124.67198545 118.94645838 -126.61305255 120.72008879 -130.1484375 121.43359375 C-135.58288093 121.44312786 -138.70595552 120.6499378 -143 117 C-146.96491595 109.0701681 -143.90516288 94.21941699 -142 86 C-141.74347656 84.89269531 -141.48695313 83.78539062 -141.22265625 82.64453125 C-134.18418002 55.42707597 -114.6781966 33.64699554 -91.05029297 19.19335938 C-62.87774118 2.79571314 -31.99727831 -0.75224997 0 0 Z M-100 38 C-100.80695313 38.67546875 -101.61390625 39.3509375 -102.4453125 40.046875 C-120.04031656 55.22054823 -132.02872872 75.60186703 -134 99 C-134.13043741 103.00757708 -134.129966 106.99271504 -134 111 C-133.01 111 -132.02 111 -131 111 C-130.55011719 110.1028125 -130.10023438 109.205625 -129.63671875 108.28125 C-112.74700813 75.24900271 -112.74700813 75.24900271 -100 71 C-97.84375 70.796875 -97.84375 70.796875 -95.5 70.75 C-94.7265625 70.72421875 -93.953125 70.6984375 -93.15625 70.671875 C-91 71 -91 71 -89.2421875 72.09375 C-85.3959681 77.99612442 -87.92279567 89.66650008 -89.125 96.25 C-90.3710692 101.69932233 -91.86138065 107.00883144 -93.5625 112.33203125 C-93.81959747 113.14132584 -94.07669495 113.95062042 -94.34158325 114.78443909 C-97.3019865 124.03998816 -100.41910899 133.24316267 -103.52270508 142.45141602 C-114.01925474 173.49466065 -114.01925474 173.49466065 -123 205 C-123.25023926 205.95438965 -123.50047852 206.9087793 -123.75830078 207.89208984 C-129.47277378 229.88551341 -136.47538508 259.34355048 -124.64453125 280.4140625 C-123.21932121 282.45444362 -121.73116993 284.21460065 -120 286 C-119.47535156 286.55171875 -118.95070312 287.1034375 -118.41015625 287.671875 C-112.0285772 293.73812897 -104.9248958 296.20875347 -96.1875 296.5 C-84.6569774 296.11231432 -72.38064766 292.38064766 -64 284 C-63.88845346 281.11860508 -63.83759598 278.25737729 -63.82421875 275.375 C-63.80446055 273.54775638 -63.78341289 271.72052635 -63.76123047 269.89331055 C-63.75009216 268.93113617 -63.73895386 267.96896179 -63.72747803 266.97763062 C-63.49467525 249.63808866 -62.78873321 232.97875063 -59 216 C-58.86106323 215.37637573 -58.72212646 214.75275146 -58.57897949 214.11022949 C-56.67153778 205.57862215 -54.66995166 197.07280315 -52.57910156 188.58422852 C-51.92711081 186.1161201 -51.92711081 186.1161201 -52 184 C-50.7934375 184.48210937 -49.586875 184.96421875 -48.34375 185.4609375 C-46.72927018 186.09922022 -45.11468098 186.73722632 -43.5 187.375 C-42.70851563 187.69210937 -41.91703125 188.00921875 -41.1015625 188.3359375 C-18.71802056 197.14257695 5.91112526 196.06859766 28 187 C52.53604934 176.01270318 70.50666769 153.72097254 80 129 C88.10119678 105.8728892 89.67836149 80.38861127 79.26342773 57.78320312 C75.71318962 50.44153992 71.52944393 44.03415991 66 38 C65.15501953 37.05253906 65.15501953 37.05253906 64.29296875 36.0859375 C46.9907718 17.68969063 21.20557614 10.41915464 -3.28515625 9.640625 C-37.78980439 8.78261568 -73.09226378 14.64611573 -100 38 Z " fill="#F9ECF2" transform="translate(280,103)"/>
<path d="M0 0 C8.2724999 6.90832444 14.46861303 16.47871392 15.88208008 27.27636719 C17.10265024 43.84096257 12.71319055 59.03009877 2.625 72.3125 C2.13128906 72.97507812 1.63757813 73.63765625 1.12890625 74.3203125 C-4.30085301 81.11854768 -11.38055034 85.96881383 -19.375 89.3125 C-20.220625 89.67601562 -21.06625 90.03953125 -21.9375 90.4140625 C-26.73864903 91.66890827 -31.31223173 91.52447966 -36.25 91.4375 C-37.71179688 91.42396484 -37.71179688 91.42396484 -39.203125 91.41015625 C-41.59400728 91.38671623 -43.98437261 91.35390442 -46.375 91.3125 C-45.57212087 84.15349442 -44.23439862 77.15308579 -42.8359375 70.08984375 C-42.57683594 68.76146484 -42.57683594 68.76146484 -42.3125 67.40625 C-42.07853516 66.22579102 -42.07853516 66.22579102 -41.83984375 65.02148438 C-40.67951035 58.25937337 -40.20692772 51.71978877 -40.171875 44.87109375 C-40.16617493 43.98575455 -40.16047485 43.10041534 -40.15460205 42.18824768 C-40.14520462 40.32171808 -40.13863914 38.45517228 -40.13476562 36.58862305 C-40.12511037 33.78208194 -40.09405716 30.97629016 -40.0625 28.16992188 C-40.00734369 18.50826868 -40.49308913 9.54994641 -42.72753906 0.13305664 C-43.375 -2.6875 -43.375 -2.6875 -43.375 -5.6875 C-28.87535586 -8.06544164 -12.60044577 -8.61630482 0 0 Z " fill="#F9ECF2" transform="translate(282.375,166.6875)"/>
<path d="M0 0 C10.1625484 -0.47145843 19.96869022 0.06386883 28 7 C35.88516343 16.97754095 38.186405 25.80021253 36.71875 38.41796875 C34.85508354 48.25597728 30.58751578 57.48305749 24 65 C23.49984375 65.60457031 22.9996875 66.20914063 22.484375 66.83203125 C16.796139 73.16916796 8.75740998 77.78701862 0.25 78.875 C-0.8225 78.91625 -1.895 78.9575 -3 79 C-2.53510267 74.47597485 -2.03210884 69.99216295 -1.25488281 65.51074219 C0.73900688 53.93429647 1.41627006 42.72463472 1.28125 30.98632812 C1.24953748 28.20950049 1.24020086 25.43324263 1.234375 22.65625 C1.22522131 20.85936812 1.21485081 19.06249193 1.203125 17.265625 C1.19887512 16.45095764 1.19462524 15.63629028 1.19024658 14.79693604 C1.12822228 9.78909123 0.70642007 4.95909718 0 0 Z " fill="#2671B4" transform="translate(251,170)"/>
</svg>
